<?xml version="1.0" standalone="yes"?>
<svg xmlns="http://www.w3.org/2000/svg" width="22" height="52">
<path style="fill:#fefefe; stroke:none;" d="M0 0L0 52L22 52L22 0L0 0z"/>
<path style="fill:#e5e5e5; stroke:none;" d="M10 5L10 6L14 6L10 5z"/>
<path style="fill:#c0c0c0; stroke:none;" d="M10 8L13 5L10 8z"/>
<path style="fill:#cfcfcf; stroke:none;" d="M10 6L11 7L10 6z"/>
<path style="fill:#b4b4b4; stroke:none;" d="M12 6L5 18L19 18L12 6z"/>
<path style="fill:#cfcfcf; stroke:none;" d="M13 6L14 7L13 6z"/>
<path style="fill:#e5e5e5; stroke:none;" d="M9 7L10 8L9 7z"/>
<path style="fill:#c0c0c0; stroke:none;" d="M13 7L14 8L13 7z"/>
<path style="fill:#e5e5e5; stroke:none;" d="M14 7L15 8L14 7z"/>
<path style="fill:#cfcfcf; stroke:none;" d="M9 8L10 9L9 8M14 8L15 9L14 8z"/>
<path style="fill:#e5e5e5; stroke:none;" d="M8 9L6 13L7 13L8 9z"/>
<path style="fill:#c0c0c0; stroke:none;" d="M9 9L10 10L9 9M14 9L16 11L14 9z"/>
<path style="fill:#e5e5e5; stroke:none;" d="M15 9L16 10L15 9z"/>
<path style="fill:#cfcfcf; stroke:none;" d="M8 10L9 11L8 10z"/>
<path style="fill:#e5e5e5; stroke:none;" d="M16 10L17 11L16 10z"/>
<path style="fill:#c0c0c0; stroke:none;" d="M8 11L9 12L8 11z"/>
<path style="fill:#cfcfcf; stroke:none;" d="M16 11L17 12L16 11z"/>
<path style="fill:#c0c0c0; stroke:none;" d="M7 12L8 13L7 12M16 12L17 13L16 12z"/>
<path style="fill:#e5e5e5; stroke:none;" d="M17 12L18 13L17 12z"/>
<path style="fill:#cfcfcf; stroke:none;" d="M6 13L7 14L6 13M17 13L18 14L17 13z"/>
<path style="fill:#e5e5e5; stroke:none;" d="M5 14L6 15L5 14z"/>
<path style="fill:#c0c0c0; stroke:none;" d="M6 14L7 15L6 14M17 14L18 15L17 14z"/>
<path style="fill:#e5e5e5; stroke:none;" d="M18 14L20 19L21 19L18 14z"/>
<path style="fill:#cfcfcf; stroke:none;" d="M5 15L6 16L5 15M18 15L19 16L18 15z"/>
<path style="fill:#e5e5e5; stroke:none;" d="M4 16L3 19L4 19L4 16z"/>
<path style="fill:#c0c0c0; stroke:none;" d="M5 16L6 17L5 16M4 17L5 18L4 17M19 17L20 18L19 17z"/>
<path style="fill:#cfcfcf; stroke:none;" d="M4 18L4 19L20 19L4 18z"/>
<path style="fill:#e5e5e5; stroke:none;" d="M3 34L3 35L20 34L19 37L20 37L21 33L3 34z"/>
<path style="fill:#cfcfcf; stroke:none;" d="M4.33333 34.6667L4.66667 35.3333L4.33333 34.6667z"/>
<path style="fill:#c0c0c0; stroke:none;" d="M5 34L5 35L20 35L5 34z"/>
<path style="fill:#b4b4b4; stroke:none;" d="M5 35L11 46L13 46L19 35L5 35z"/>
<path style="fill:#cfcfcf; stroke:none;" d="M19 35L20 36L19 35z"/>
<path style="fill:#e5e5e5; stroke:none;" d="M4 36L5 37L4 36z"/>
<path style="fill:#c0c0c0; stroke:none;" d="M5 36L6 37L5 36M18 36L19 37L18 36z"/>
<path style="fill:#cfcfcf; stroke:none;" d="M5 37L6 38L5 37M18 37L19 38L18 37z"/>
<path style="fill:#e5e5e5; stroke:none;" d="M5 38L7 40L5 38z"/>
<path style="fill:#c0c0c0; stroke:none;" d="M6 38L7 39L6 38M17 38L18 39L17 38z"/>
<path style="fill:#e5e5e5; stroke:none;" d="M18 38L19 39L18 38z"/>
<path style="fill:#c0c0c0; stroke:none;" d="M7 39L8 40L7 39z"/>
<path style="fill:#e5e5e5; stroke:none;" d="M17 39L16 42L17 39z"/>
<path style="fill:#cfcfcf; stroke:none;" d="M7 40L8 41L7 40M16 40L17 41L16 40z"/>
<path style="fill:#e5e5e5; stroke:none;" d="M7 41L8 42L7 41z"/>
<path style="fill:#c0c0c0; stroke:none;" d="M8 41L9 42L8 41M15 41L16 42L15 41z"/>
<path style="fill:#cfcfcf; stroke:none;" d="M8 42L9 43L8 42M15 42L16 43L15 42z"/>
<path style="fill:#e5e5e5; stroke:none;" d="M8 43L10 47L11 47L8 43z"/>
<path style="fill:#c0c0c0; stroke:none;" d="M9 43L10 44L9 43M14 43L15 44L14 43z"/>
<path style="fill:#e5e5e5; stroke:none;" d="M15 43L16 44L15 43z"/>
<path style="fill:#c0c0c0; stroke:none;" d="M10 44L11 45L10 44z"/>
<path style="fill:#cfcfcf; stroke:none;" d="M14 44L15 45L14 44M10 45L11 46L10 45z"/>
<path style="fill:#c0c0c0; stroke:none;" d="M13 45L11 46L11 47L13 45z"/>
<path style="fill:#e5e5e5; stroke:none;" d="M14 45L15 46L14 45M13 46L11 48L11 49L13 46z"/>
<path style="fill:#cfcfcf; stroke:none;" d="M11.6667 47.3333L12.3333 47.6667L11.6667 47.3333z"/>
</svg>
